PathFileType	4	(X/Y/Z)	Patient4_TMGait_0pt6_02_right_01.trc.trc
DataRate	CameraRate	NumFrames	NumMarkers	Units	OrigDataRate	OrigDataStartFrame	OrigNumFrames
82.352941176471	82.352941176471	4	33	mm	82.352941176471	53	       141
Frame#	Time	Sacral			L.Shoulder			Chest			R.Shoulder			Neck			R.ASIS			L.ASIS			R.Thigh.Superior			R.Thigh.Lateral			R.Thigh.Inferior			R.Patella			L.Thigh.Superior			L.Thigh.Lateral			L.Thigh.Inferior			L.Patella			L.Shank.Superior			L.Shank.Lateral			L.Shank.Inferior			R.Shank.Superior			R.Shank.Lateral			R.Shank.Inferior			R.Heel			R.Midfoot.Superior			R.Midfoot.Lateral			R.Toe			L.Heel			L.Midfoot.Lateral			L.Midfoot.Superior			L.Toe			L.Elbow			L.Wrist			R.Elbow			R.Wrist			
		X1	Y1	Z1	X2	Y2	Z2	X3	Y3	Z3	X4	Y4	Z4	X5	Y5	Z5	X6	Y6	Z6	X7	Y7	Z7	X8	Y8	Z8	X9	Y9	Z9	X10	Y10	Z10	X11	Y11	Z11	X12	Y12	Z12	X13	Y13	Z13	X14	Y14	Z14	X15	Y15	Z15	X16	Y16	Z16	X17	Y17	Z17	X18	Y18	Z18	X19	Y19	Z19	X20	Y20	Z20	X21	Y21	Z21	X22	Y22	Z22	X23	Y23	Z23	X24	Y24	Z24	X25	Y25	Z25	X26	Y26	Z26	X27	Y27	Z27	X28	Y28	Z28	X29	Y29	Z29	X30	Y30	Z30	X31	Y31	Z31	X32	Y32	Z32	X33	Y33	Z33	

53	1.171428571429	709.226383423278	1017.174523939317	552.114535092153	874.567666718190	1441.484008966874	360.470050841069	996.022898431058	1368.536054926454	505.863372590819	937.081590417894	1441.000563405069	689.388575178438	876.994971078204	1498.999311368296	515.994448760543	941.195325869738	942.968478227154	647.698047036099	905.110538723192	969.406360511984	376.421564626999	958.033192269391	736.804876031220	618.536230986177	865.205084782125	636.094338046698	679.389256550337	934.184141529905	577.590123732691	598.460398508461	926.373077727691	494.833860003073	603.135699087511	994.163452535108	799.749140672513	398.888373352552	957.847039148098	673.439976656864	314.485700478076	1068.359239600778	617.640330041232	370.053175277180	1092.063229849589	533.504486856091	358.269092263592	1042.784856502601	457.690887447587	352.328191335261	917.897589641569	378.225473425382	306.007585610828	945.725160004168	249.795315710459	358.571498757447	901.105161394367	408.102177948154	606.847733060396	830.832108104742	300.236574414113	661.516634027213	881.021895364182	209.271671614325	597.245866177099	755.226444517898	42.530009796039	552.161683610515	923.902991693921	96.845411142191	598.532246587213	834.622243503104	36.236886926148	632.069659795574	1042.978818003410	44.857873647998	632.021462909396	784.656318384937	129.814029405301	400.096173523788	849.895748322823	105.884484571174	316.482309738991	948.023832180502	145.761769180535	335.101834174725	1055.279475672948	64.455893005441	300.865285021001	812.123549249536	1086.173608881122	261.838353835734	877.712575740427	832.974756099582	256.820009779963	986.752937909358	1095.793679911836	810.941299106485	1199.884077858213	953.449351613255	772.962376391098	
54	1.183571428571	708.452103732684	1017.300491119959	552.846178931255	874.241093783588	1441.221807339724	361.261421947422	996.092721793731	1367.914382582863	506.130842273712	938.123689364668	1440.492488643065	689.954365303836	877.414428109527	1498.715030691359	516.770736440006	940.464888944114	942.581933330400	647.869100435639	903.943229743741	969.200845908090	376.529925099833	955.739627172839	736.234747810065	618.365340453213	862.380427133110	635.969101604560	679.584049655442	930.673144492460	576.965788152613	598.630573358297	922.129331657832	494.251603105169	603.294744325765	993.113775035478	800.734972486033	399.571718739260	958.542775331689	674.075783110289	314.941980229335	1068.688168035980	619.231353818865	371.528373791279	1094.025872407353	536.717181225500	359.480051400975	1048.242312133036	460.105740428968	352.893931831972	928.186318173799	374.037784160095	305.976125662889	963.376573519874	246.944842327850	357.968184704399	896.314219402559	407.778801475921	606.936521770387	825.451549965079	300.294122496169	661.639834580346	874.785229636032	209.015153398802	597.186142075021	747.980757843884	42.659434863987	552.210500515340	916.728678203718	96.744502502408	598.546667647763	827.344110312867	36.267957694925	632.066214557502	1035.751390922060	44.376401731016	632.066421397302	809.541074338901	117.795533404149	398.878102325324	876.112205211369	97.913739799022	315.272036536052	971.817498912636	143.088385029195	334.204649530055	1083.506532707497	67.958144667416	299.900823410825	805.578858071691	1086.505193393411	264.454651808826	858.391472272043	830.666869241731	260.408260178942	996.288179734925	1096.862582763752	810.821085309524	1216.868797059443	967.938479870037	769.957238284916	
55	1.195714285714	707.765019506257	1017.385222713303	553.410027607679	873.996485555869	1440.960675814387	361.911691649886	996.200968564862	1367.267498578066	506.277711871304	939.146479932601	1439.943763062866	690.376613851969	877.856233742836	1498.402154857411	517.403710902700	939.786614923215	942.199244586511	647.976396313463	902.906033794786	968.876063441085	376.523575222528	953.614446910531	735.647074111297	618.331447146612	859.583227810152	635.840152318236	679.738639203962	927.260994633674	576.328343659740	598.822697334574	917.960313844853	493.673205826990	603.433527076323	991.832014805927	801.223952047292	400.135636529442	958.660465299634	674.264918705580	315.364712781828	1068.318722486739	620.161735262169	373.023299037138	1095.168262556436	539.426002831331	360.794364485463	1052.962183671881	462.286989820622	353.551426905347	938.283480363492	369.785022473656	305.885505535280	980.792841272005	244.515060933950	357.436843024398	891.588294776258	407.463495453862	607.015057727062	820.111741692195	300.368832640439	661.748971828065	868.577295794346	208.768021695123	597.122748895305	740.744462926305	42.804492200649	552.284077642352	909.565830453724	96.649020520537	598.563375834818	820.063649903397	36.300196653294	632.039242300446	1028.525202524363	43.871673317885	632.115305444618	834.786335357335	106.541171338544	397.553348530784	902.633346709703	90.761680538783	314.102984524452	995.543688176188	141.141445004050	333.484572051514	1111.393091721112	72.430270848693	299.410606765267	798.997404259825	1087.054742998832	266.787690455019	839.689761051923	829.369657854677	263.854381970659	1005.451145696086	1098.093166937784	810.426665458945	1232.586743045502	982.903248882937	766.773582650904	
56	1.207857142857	707.189282130175	1017.442819715736	553.816372696029	873.831317796938	1440.726867766013	362.420723069234	996.342087606200	1366.625932749957	506.308006990455	940.130115564246	1439.379722604461	690.652798342333	878.303455285001	1498.078759910315	517.896855014364	939.183036142706	941.833656097309	648.019925450785	902.014843475037	968.459711314648	376.405126934926	951.630157696410	735.034357458963	618.434298299015	856.759340235875	635.720990689604	679.857546225827	923.877192136165	575.680642082014	599.040100889481	913.800898721716	493.108121383057	603.553845977337	990.355727464513	801.246754949282	400.580820045752	958.207508445312	674.039754923556	315.725445836031	1067.317633316176	620.465604639672	374.448954948790	1095.540956874564	541.635133951364	362.153372619809	1056.953098334196	464.245359880976	354.273326699363	948.125415123518	365.579499137766	305.732395941190	997.785885686729	242.608086637927	357.003327060606	886.859627237253	407.164254450833	607.080830673082	814.758964611714	300.468982256666	661.841551915125	862.371397231867	208.544836803744	597.061562136217	733.510778840292	42.963127376326	552.379068796788	902.408456886585	96.563032374774	598.582563480536	812.778108574421	36.331755271761	631.985130649256	1021.295228705604	43.366496368902	632.169394071022	860.081251222574	96.291417528411	396.169661563979	929.153100887059	84.593086486524	313.032093084016	1018.935188026885	140.015662978219	332.980919478683	1138.623766981618	77.884645782812	299.464074194568	792.444323592997	1087.858789324801	268.815794365855	821.769975366079	829.004103500532	267.146866084260	1014.213018887429	1099.478567072407	809.746383466586	1246.989875531567	998.205275689640	763.452949187735	
